<svg xmlns="http://www.w3.org/2000/svg" viewBox="0 0 100 100" width="200" height="200">
  <g stroke="#1b1b1b" stroke-width="5" stroke-linecap="round" fill="none">
    <path d="M 24 44 L 8 34"/><path d="M 17 60 L 3 60"/><path d="M 24 76 L 9 86"/>
    <path d="M 76 44 L 92 34"/><path d="M 83 60 L 97 60"/><path d="M 76 76 L 91 86"/>
  </g>
  <g stroke="#1b1b1b" stroke-width="4" stroke-linecap="round" fill="none">
    <path d="M 43 13 C 36 2, 24 3, 22 10"/>
    <path d="M 57 13 C 64 2, 76 3, 78 10"/>
  </g>
  <circle cx="22" cy="10" r="3.5" fill="#1b1b1b"/>
  <circle cx="78" cy="10" r="3.5" fill="#1b1b1b"/>
  <circle cx="50" cy="20" r="11" fill="#2f3136"/>
  <ellipse cx="50" cy="31" rx="21" ry="12" fill="#2f3136"/>
  <circle cx="39" cy="28" r="3.6" fill="#f5f5f5"/>
  <circle cx="61" cy="28" r="3.6" fill="#f5f5f5"/>
  <ellipse cx="50" cy="60" rx="35" ry="37" fill="#FB8C00"/>
  <line x1="50" y1="30" x2="50" y2="97" stroke="#1b1b1b" stroke-width="3.5"/>
  <g fill="#1b1b1b">
    <circle cx="33" cy="50" r="5.6"/><circle cx="36" cy="76" r="6.4"/><circle cx="43" cy="62" r="5"/>
    <circle cx="67" cy="50" r="5.6"/><circle cx="64" cy="76" r="6.4"/><circle cx="57" cy="62" r="5"/>
  </g>
  <ellipse cx="50" cy="60" rx="35" ry="37" fill="none" stroke="#1b1b1b" stroke-width="3.5"/>
</svg>
